<?xml version="1.0" encoding="UTF-8" standalone="no"?>
<svg width="134px" height="134px" viewBox="0 0 134 134" version="1.1" xmlns="http://www.w3.org/2000/svg" xmlns:xlink="http://www.w3.org/1999/xlink" xmlns:sketch="http://www.bohemiancoding.com/sketch/ns">
    <!-- Generator: Sketch 3.2.2 (9983) - http://www.bohemiancoding.com/sketch -->
    <title>logo</title>
    <desc>Created with Sketch.</desc>
    <defs></defs>
    <g id="Home-page" stroke="none" stroke-width="1" fill="none" fill-rule="evenodd" sketch:type="MSPage">
        <g id="New-style" sketch:type="MSArtboardGroup" transform="translate(-10.000000, -8.000000)">
            <g id="Header---Dark---New-style" sketch:type="MSLayerGroup">
                <g id="Second-bar" transform="translate(0.000000, 50.000000)" fill="#E8E7E2" sketch:type="MSShapeGroup">
                    <rect id="Rectangle-3" x="0" y="0" width="1440" height="50"></rect>
                </g>
                <g id="First-bar" fill="#6C6F77" sketch:type="MSShapeGroup">
                    <rect id="Rectangle-2" x="0" y="0" width="1440" height="50"></rect>
                </g>
                <g id="Logo" transform="translate(10.000000, 8.000000)" sketch:type="MSShapeGroup">
                    <rect id="Background" fill="#613C88" x="0" y="0" width="134" height="134"></rect>
                    <g id="nccppr-vector" transform="translate(12.000000, 42.000000)" fill="#FFFFFF">
                        <path d="M0,16.5090253 L12.9555556,16.4476534 L25.9111111,16.4476534 L26.3388889,15.6498195 C28.4166667,11.599278 31.2888889,8.28519856 34.9555556,5.70758123 C37.0944444,4.1732852 39.9055556,2.76173285 42.5333333,1.96389892 C44.3055556,1.35018051 45.4055556,1.10469314 46.9333333,0.797833935 C48.5222222,0.490974729 51.0903697,0.0613718425 52.0070363,0.0613718425 C52.3125919,0.0613718425 52.5555556,-2.30857e-14 54.5111111,0.0613718412 C57.2611111,0.122743682 59.1555556,0.245487365 61.6,0.675090253 C63.1277778,0.920577617 65.7555556,1.53429603 66.1833333,1.65703971 C66.6722222,1.77978339 68.1388889,2.27075812 68.1388889,2.33212996 C68.2,2.33212996 68.6277778,2.45487365 69.0555556,2.63898917 C69.1777778,2.70036101 69.4222222,2.82310469 69.7277778,2.94584838 C70.2166667,3.1299639 71.1333333,3.55956679 71.1944444,3.62093863 C71.1944444,3.68231047 71.3166667,3.74368231 71.4388889,3.80505415 C71.7444444,3.98916968 72.2944444,4.29602888 72.4777778,4.41877256 C72.6,4.4801444 72.7222222,4.60288809 72.7222222,4.60288809 C72.7833333,4.54151625 74.0666667,5.46209386 74.0666667,5.5234657 C74.1888889,5.58483755 75.0444444,6.19855596 75.35,6.50541516 C75.4111111,6.566787 75.5944444,6.75090253 75.7777778,6.87364621 C76.2055556,7.18050542 77.9777778,8.96028881 77.9777778,9.02166065 C77.9166667,9.02166065 78.0388889,9.14440433 78.1,9.20577617 C78.2222222,9.26714801 78.4666667,9.57400722 79.5666667,10.8628159 C79.6888889,11.0469314 79.8722222,11.2310469 79.8722222,11.2924188 C79.9333333,11.4151625 79.9944444,11.4765343 79.9944444,11.4765343 C80.1166667,11.4151625 83.1722222,15.7725632 83.3555556,16.2021661 L83.4952488,16.3862824 L96.6777778,16.3862816 L110,16.3862816 L110,33.6931408 L110,51 L97.1055556,51 L84.2722222,51 L84.2722222,38.1119134 L84.2722222,25.2851986 L87.45,25.2851986 L90.6277778,25.2851986 L90.6277778,34.4296029 L90.6277778,43.6353791 L92.0944444,43.6353791 L93.6222222,43.6353791 L93.6222222,34.4296029 L93.6222222,25.2851986 L96.6777778,25.2851986 L99.7944444,25.2851986 L99.7944444,34.4296029 L99.7944444,43.6353791 L101.322222,43.6353791 L102.911111,43.6353791 L102.911111,32.7725632 L102.911111,21.9711191 L90.9944444,21.9711191 L79.1388889,21.9711191 L79.0166667,21.6642599 C78.9555556,21.4801444 78.8944444,21.3574007 78.8944444,21.3574007 C78.8944444,21.234657 78.4666667,20.3754513 78.0388889,19.5776173 C76.2666667,15.8953069 73.6388889,12.8267148 70.5222222,10.6173285 C67.0388889,8.22382671 62.6388889,6.62815884 57.75,6.01444043 C56.7111111,5.89169675 53.4111111,5.83032491 52.25,5.89169675 C48.4,6.2599278 44.7944444,7.24187726 41.5555556,8.83754513 C39.2944444,10.0036101 37.0944444,11.5379061 35.5055556,13.0108303 C35.2,13.2563177 35.0166667,13.4404332 35.0166667,13.4404332 C35.0166667,13.4404332 34.7722222,13.6245487 34.5277778,13.9314079 C34.2222222,14.2382671 34.0388889,14.4223827 33.9777778,14.4223827 C33.9777778,14.4223827 33.7333333,14.7906137 33.3666667,15.2202166 C32.2055556,16.631769 31.2277778,18.1046931 30.4944444,19.5776173 C30.3111111,19.9458484 30.1277778,20.2527076 30.1277778,20.3140794 C30.0666667,20.4981949 29.9444444,20.6823105 29.8833333,20.9277978 C29.7611111,21.1119134 29.6388889,21.4187726 29.5777778,21.6028881 L29.4555556,21.9711191 L18.3333333,21.9097473 L6.66111111,21.9097473 L6.23333333,21.9711191 L6.23333333,32.7725632 L6.23333333,43.6353791 L7.94444444,43.6353791 L9.65555556,43.6353791 L9.65555556,39.8916968 L9.65555556,30.6859206 L9.71666667,25.2238267 L12.8944444,25.2851986 L16.1333333,25.2851986 L16.1333333,34.4296029 L16.1944444,43.6353791 L17.5388889,43.6353791 L18.8833333,43.6353791 L18.8833333,37.9891697 L18.8833333,32.3429603 L18.8833333,28.7833935 L18.9444444,25.2851986 L22,25.2851986 L24.9944444,25.2238267 L25.0555556,38.1119134 L25.0555556,51 L12.5277778,51 L0,51 L0,33.7545126 L0,16.5090253 Z M33.0611111,21.7870036 C33.1222222,21.7256318 33.8555556,20.5595668 34.65,19.2093863 L36.2388889,16.8158845 L54.3277778,16.8158845 L72.4166667,16.8158845 L74.3722222,19.2707581 C75.4111111,20.6823105 76.2666667,21.7870036 76.3277778,21.8483755 C76.3277778,21.9097473 72.6611111,21.9711191 54.6333333,21.9711191 L32.9388889,21.9711191 L33.0611111,21.7870036 L33.0611111,21.7870036 Z" id="Fill-2"></path>
                    </g>
                </g>
            </g>
        </g>
    </g>
</svg>