<?xml version="1.0" encoding="UTF-8" standalone="no"?>
<svg width="265px" height="69px" viewBox="0 0 265 69" version="1.1" xmlns="http://www.w3.org/2000/svg" xmlns:xlink="http://www.w3.org/1999/xlink" xmlns:sketch="http://www.bohemiancoding.com/sketch/ns">
    <!-- Generator: Sketch 3.2.2 (9983) - http://www.bohemiancoding.com/sketch -->
    <title>NC INSIGHT outlines</title>
    <desc>Created with Sketch.</desc>
    <defs></defs>
    <g id="Home-page" stroke="none" stroke-width="1" fill="none" fill-rule="evenodd" sketch:type="MSPage">
        <g id="New-style" sketch:type="MSArtboardGroup" transform="translate(-167.000000, -31.000000)">
            <g id="Header---Dark---New-style" sketch:type="MSLayerGroup">
                <g id="NC-INSIGHT-outlines" transform="translate(167.000000, 31.000000)" sketch:type="MSShapeGroup">
                    <path d="M11.656,24.48 L0.84,24.48 L0.84,68 L11.656,68 L11.656,24.48 Z M59.4,24.48 L48.584,24.48 L48.584,48.992 L27.592,24.48 L19.336,24.48 L19.336,68 L30.152,68 L30.152,44.128 L51.016,68 L59.4,68 L59.4,24.48 Z M84.744,23.52 C74.504,23.52 67.464,29.024 67.464,37.728 C67.464,44.64 71.496,48.672 80.072,50.528 L87.24,52.128 C90.952,52.832 91.848,54.368 91.848,55.84 C91.848,58.208 89.736,59.68 85.704,59.68 C80.584,59.68 77.256,57.376 76.552,53.536 L65.736,53.536 C66.76,64.288 75.592,68.896 85.384,68.896 C96.264,68.896 103.432,63.456 103.432,54.752 C103.432,47.264 98.248,44.064 90.312,42.336 L84.232,40.928 C80.968,40.224 79.24,39.2 79.24,36.832 C79.24,34.016 81.736,32.48 85.448,32.48 C89.864,32.48 91.912,34.72 92.488,37.984 L103.368,37.984 C102.28,26.272 91.784,23.52 84.744,23.52 L84.744,23.52 Z M120.776,24.48 L109.96,24.48 L109.96,68 L120.776,68 L120.776,24.48 Z M172.872,43.552 L149.576,43.552 L149.576,52.064 L162.056,52.192 C159.944,56.352 156.104,58.848 151.048,58.848 C143.304,58.848 138.376,53.28 138.376,46.432 C138.376,38.752 143.496,33.504 150.92,33.504 C154.824,33.504 159.176,34.912 161.096,39.968 L172.424,39.968 C170.568,29.6 161.352,23.584 150.728,23.584 C137.416,23.584 127.432,33.12 127.432,46.688 C127.432,59.168 136.968,68.896 150.6,68.896 C156.68,68.896 161.224,66.592 164.36,62.752 L164.808,68 L172.872,68 L172.872,43.552 Z M220.808,24.48 L209.992,24.48 L209.992,41.952 L192.264,41.952 L192.264,24.48 L181.448,24.48 L181.448,68 L192.264,68 L192.264,51.68 L209.992,51.68 L209.992,68 L220.808,68 L220.808,24.48 Z M264.136,34.144 L264.136,24.48 L225.608,24.48 L225.608,34.144 L239.496,34.144 L239.496,68 L250.312,68 L250.312,34.144 L264.136,34.144 Z" id="INSIGHT-2" fill="#6C6F77"></path>
                    <path d="M13.07,0.76 L11.792,0.76 L11.792,10.804 L3.764,0.76 L2.702,0.76 L2.702,13 L3.98,13 L3.98,3.064 L11.972,13 L13.07,13 L13.07,0.76 Z M20.306,4.468 C17.804,4.468 15.878,6.376 15.878,8.842 C15.878,11.344 17.804,13.27 20.306,13.27 C22.79,13.27 24.716,11.344 24.716,8.842 C24.716,6.376 22.79,4.468 20.306,4.468 L20.306,4.468 Z M20.306,12.154 C18.488,12.154 17.12,10.678 17.12,8.842 C17.12,7.06 18.488,5.602 20.306,5.602 C22.124,5.602 23.492,7.06 23.492,8.842 C23.492,10.678 22.124,12.154 20.306,12.154 L20.306,12.154 Z M28.352,4.684 L27.128,4.684 L27.128,13 L28.352,13 L28.352,7.564 C29.09,6.358 30.242,5.674 31.61,5.638 L31.61,4.468 C30.26,4.468 29.126,5.08 28.352,6.124 L28.352,4.684 Z M38.9,11.92 C38.45,12.046 37.928,12.136 37.496,12.136 C36.236,12.136 35.642,11.524 35.642,10.012 L35.642,5.746 L38.792,5.746 L38.792,4.684 L35.642,4.684 L35.642,1.606 L34.418,1.606 L34.418,4.684 L32.204,4.684 L32.204,5.746 L34.418,5.746 L34.418,10.012 C34.418,12.172 35.39,13.27 37.298,13.27 C37.856,13.27 38.342,13.198 39.098,12.982 L38.9,11.92 Z M45.596,4.414 C44.372,4.414 43.292,4.882 42.518,5.674 L42.518,0.22 L41.294,0.22 L41.294,13 L42.518,13 L42.518,7.096 C43.238,6.106 44.318,5.548 45.38,5.548 C46.892,5.548 47.918,6.538 47.918,8.266 L47.918,13 L49.142,13 L49.142,8.212 C49.142,5.872 47.684,4.414 45.596,4.414 L45.596,4.414 Z M62.48,12.028 C59.636,12.028 57.422,9.814 57.422,6.88 C57.422,3.946 59.636,1.732 62.48,1.732 C64.784,1.732 66.458,3.046 66.98,5.062 L68.312,5.062 C67.718,2.362 65.486,0.508 62.48,0.508 C58.952,0.508 56.126,3.28 56.126,6.88 C56.126,10.48 58.952,13.252 62.48,13.252 C65.486,13.252 67.718,11.398 68.312,8.698 L66.98,8.698 C66.458,10.714 64.784,12.028 62.48,12.028 L62.48,12.028 Z M78.77,4.684 L77.546,4.684 L77.546,5.62 C76.79,4.9 75.782,4.468 74.54,4.468 C72.164,4.468 70.238,6.412 70.238,8.842 C70.238,11.29 72.164,13.234 74.54,13.234 C75.782,13.234 76.79,12.802 77.546,12.082 L77.546,13 L78.77,13 L78.77,4.684 Z M74.702,12.154 C72.866,12.154 71.48,10.642 71.48,8.842 C71.48,7.06 72.866,5.548 74.702,5.548 C75.836,5.548 76.844,6.052 77.546,7.06 L77.546,10.642 C76.844,11.65 75.836,12.154 74.702,12.154 L74.702,12.154 Z M83.036,4.684 L81.812,4.684 L81.812,13 L83.036,13 L83.036,7.564 C83.774,6.358 84.926,5.674 86.294,5.638 L86.294,4.468 C84.944,4.468 83.81,5.08 83.036,6.124 L83.036,4.684 Z M91.946,4.468 C89.444,4.468 87.518,6.376 87.518,8.842 C87.518,11.344 89.444,13.27 91.946,13.27 C94.43,13.27 96.356,11.344 96.356,8.842 C96.356,6.376 94.43,4.468 91.946,4.468 L91.946,4.468 Z M91.946,12.154 C90.128,12.154 88.76,10.678 88.76,8.842 C88.76,7.06 90.128,5.602 91.946,5.602 C93.764,5.602 95.132,7.06 95.132,8.842 C95.132,10.678 93.764,12.154 91.946,12.154 L91.946,12.154 Z M100.082,0.22 L98.858,0.22 L98.858,13 L100.082,13 L100.082,0.22 Z M103.988,2.362 C104.474,2.362 104.852,2.02 104.852,1.534 C104.852,1.066 104.474,0.706 103.988,0.706 C103.52,0.706 103.142,1.066 103.142,1.534 C103.142,2.02 103.52,2.362 103.988,2.362 L103.988,2.362 Z M104.6,4.684 L103.376,4.684 L103.376,13 L104.6,13 L104.6,4.684 Z M112.196,4.414 C110.972,4.414 109.892,4.882 109.118,5.674 L109.118,4.684 L107.894,4.684 L107.894,13 L109.118,13 L109.118,7.096 C109.838,6.106 110.918,5.548 111.98,5.548 C113.492,5.548 114.518,6.538 114.518,8.266 L114.518,13 L115.742,13 L115.742,8.212 C115.742,5.872 114.284,4.414 112.196,4.414 L112.196,4.414 Z M126.47,4.684 L125.246,4.684 L125.246,5.62 C124.49,4.9 123.482,4.468 122.24,4.468 C119.864,4.468 117.938,6.412 117.938,8.842 C117.938,11.29 119.864,13.234 122.24,13.234 C123.482,13.234 124.49,12.802 125.246,12.082 L125.246,13 L126.47,13 L126.47,4.684 Z M122.402,12.154 C120.566,12.154 119.18,10.642 119.18,8.842 C119.18,7.06 120.566,5.548 122.402,5.548 C123.536,5.548 124.544,6.052 125.246,7.06 L125.246,10.642 C124.544,11.65 123.536,12.154 122.402,12.154 L122.402,12.154 Z" id="North-Carolina-2" fill="#E8E7E2"></path>
                </g>
            </g>
        </g>
    </g>
</svg>