<?xml version="1.0" encoding="UTF-8" standalone="no"?>
<svg width="266px" height="70px" viewBox="0 0 266 70" version="1.1" xmlns="http://www.w3.org/2000/svg" xmlns:xlink="http://www.w3.org/1999/xlink" xmlns:sketch="http://www.bohemiancoding.com/sketch/ns">
    <!-- Generator: Sketch 3.2.2 (9983) - http://www.bohemiancoding.com/sketch -->
    <title>INSIGHT + North Carolina</title>
    <desc>Created with Sketch.</desc>
    <defs></defs>
    <g id="Home-page" stroke="none" stroke-width="1" fill="none" fill-rule="evenodd" sketch:type="MSPage">
        <g id="New-style" sketch:type="MSArtboardGroup" transform="translate(-166.000000, -30.000000)">
            <g id="Header---Dark---New-style" sketch:type="MSLayerGroup">
                <g id="INSIGHT-+-North-Carolina" transform="translate(166.000000, 30.000000)" sketch:type="MSShapeGroup">
                    <path d="M12.656,25.48 L1.84,25.48 L1.84,69 L12.656,69 L12.656,25.48 Z M60.4,25.48 L49.584,25.48 L49.584,49.992 L28.592,25.48 L20.336,25.48 L20.336,69 L31.152,69 L31.152,45.128 L52.016,69 L60.4,69 L60.4,25.48 Z M85.744,24.52 C75.504,24.52 68.464,30.024 68.464,38.728 C68.464,45.64 72.496,49.672 81.072,51.528 L88.24,53.128 C91.952,53.832 92.848,55.368 92.848,56.84 C92.848,59.208 90.736,60.68 86.704,60.68 C81.584,60.68 78.256,58.376 77.552,54.536 L66.736,54.536 C67.76,65.288 76.592,69.896 86.384,69.896 C97.264,69.896 104.432,64.456 104.432,55.752 C104.432,48.264 99.248,45.064 91.312,43.336 L85.232,41.928 C81.968,41.224 80.24,40.2 80.24,37.832 C80.24,35.016 82.736,33.48 86.448,33.48 C90.864,33.48 92.912,35.72 93.488,38.984 L104.368,38.984 C103.28,27.272 92.784,24.52 85.744,24.52 L85.744,24.52 Z M121.776,25.48 L110.96,25.48 L110.96,69 L121.776,69 L121.776,25.48 Z M173.872,44.552 L150.576,44.552 L150.576,53.064 L163.056,53.192 C160.944,57.352 157.104,59.848 152.048,59.848 C144.304,59.848 139.376,54.28 139.376,47.432 C139.376,39.752 144.496,34.504 151.92,34.504 C155.824,34.504 160.176,35.912 162.096,40.968 L173.424,40.968 C171.568,30.6 162.352,24.584 151.728,24.584 C138.416,24.584 128.432,34.12 128.432,47.688 C128.432,60.168 137.968,69.896 151.6,69.896 C157.68,69.896 162.224,67.592 165.36,63.752 L165.808,69 L173.872,69 L173.872,44.552 Z M221.808,25.48 L210.992,25.48 L210.992,42.952 L193.264,42.952 L193.264,25.48 L182.448,25.48 L182.448,69 L193.264,69 L193.264,52.68 L210.992,52.68 L210.992,69 L221.808,69 L221.808,25.48 Z M265.136,35.144 L265.136,25.48 L226.608,25.48 L226.608,35.144 L240.496,35.144 L240.496,69 L251.312,69 L251.312,35.144 L265.136,35.144 Z" id="INSIGHT" fill="#6C6F77"></path>
                    <path d="M14.128,1.68 L12.424,1.68 L12.424,15.072 L1.72,1.68 L0.304,1.68 L0.304,18 L2.008,18 L2.008,4.752 L12.664,18 L14.128,18 L14.128,1.68 Z M23.776,6.624 C20.44,6.624 17.872,9.168 17.872,12.456 C17.872,15.792 20.44,18.36 23.776,18.36 C27.088,18.36 29.656,15.792 29.656,12.456 C29.656,9.168 27.088,6.624 23.776,6.624 L23.776,6.624 Z M23.776,16.872 C21.352,16.872 19.528,14.904 19.528,12.456 C19.528,10.08 21.352,8.136 23.776,8.136 C26.2,8.136 28.024,10.08 28.024,12.456 C28.024,14.904 26.2,16.872 23.776,16.872 L23.776,16.872 Z M34.504,6.912 L32.872,6.912 L32.872,18 L34.504,18 L34.504,10.752 C35.488,9.144 37.024,8.232 38.848,8.184 L38.848,6.624 C37.048,6.624 35.536,7.44 34.504,8.832 L34.504,6.912 Z M48.568,16.56 C47.968,16.728 47.272,16.848 46.696,16.848 C45.016,16.848 44.224,16.032 44.224,14.016 L44.224,8.328 L48.424,8.328 L48.424,6.912 L44.224,6.912 L44.224,2.808 L42.592,2.808 L42.592,6.912 L39.64,6.912 L39.64,8.328 L42.592,8.328 L42.592,14.016 C42.592,16.896 43.888,18.36 46.432,18.36 C47.176,18.36 47.824,18.264 48.832,17.976 L48.568,16.56 Z M57.496,6.552 C55.864,6.552 54.424,7.176 53.392,8.232 L53.392,0.96 L51.76,0.96 L51.76,18 L53.392,18 L53.392,10.128 C54.352,8.808 55.792,8.064 57.208,8.064 C59.224,8.064 60.592,9.384 60.592,11.688 L60.592,18 L62.224,18 L62.224,11.616 C62.224,8.496 60.28,6.552 57.496,6.552 L57.496,6.552 Z M80.008,16.704 C76.216,16.704 73.264,13.752 73.264,9.84 C73.264,5.928 76.216,2.976 80.008,2.976 C83.08,2.976 85.312,4.728 86.008,7.416 L87.784,7.416 C86.992,3.816 84.016,1.344 80.008,1.344 C75.304,1.344 71.536,5.04 71.536,9.84 C71.536,14.64 75.304,18.336 80.008,18.336 C84.016,18.336 86.992,15.864 87.784,12.264 L86.008,12.264 C85.312,14.952 83.08,16.704 80.008,16.704 L80.008,16.704 Z M101.728,6.912 L100.096,6.912 L100.096,8.16 C99.088,7.2 97.744,6.624 96.088,6.624 C92.92,6.624 90.352,9.216 90.352,12.456 C90.352,15.72 92.92,18.312 96.088,18.312 C97.744,18.312 99.088,17.736 100.096,16.776 L100.096,18 L101.728,18 L101.728,6.912 Z M96.304,16.872 C93.856,16.872 92.008,14.856 92.008,12.456 C92.008,10.08 93.856,8.064 96.304,8.064 C97.816,8.064 99.16,8.736 100.096,10.08 L100.096,14.856 C99.16,16.2 97.816,16.872 96.304,16.872 L96.304,16.872 Z M107.416,6.912 L105.784,6.912 L105.784,18 L107.416,18 L107.416,10.752 C108.4,9.144 109.936,8.232 111.76,8.184 L111.76,6.624 C109.96,6.624 108.448,7.44 107.416,8.832 L107.416,6.912 Z M119.296,6.624 C115.96,6.624 113.392,9.168 113.392,12.456 C113.392,15.792 115.96,18.36 119.296,18.36 C122.608,18.36 125.176,15.792 125.176,12.456 C125.176,9.168 122.608,6.624 119.296,6.624 L119.296,6.624 Z M119.296,16.872 C116.872,16.872 115.048,14.904 115.048,12.456 C115.048,10.08 116.872,8.136 119.296,8.136 C121.72,8.136 123.544,10.08 123.544,12.456 C123.544,14.904 121.72,16.872 119.296,16.872 L119.296,16.872 Z M130.144,0.96 L128.512,0.96 L128.512,18 L130.144,18 L130.144,0.96 Z M135.352,3.816 C136,3.816 136.504,3.36 136.504,2.712 C136.504,2.088 136,1.608 135.352,1.608 C134.728,1.608 134.224,2.088 134.224,2.712 C134.224,3.36 134.728,3.816 135.352,3.816 L135.352,3.816 Z M136.168,6.912 L134.536,6.912 L134.536,18 L136.168,18 L136.168,6.912 Z M146.296,6.552 C144.664,6.552 143.224,7.176 142.192,8.232 L142.192,6.912 L140.56,6.912 L140.56,18 L142.192,18 L142.192,10.128 C143.152,8.808 144.592,8.064 146.008,8.064 C148.024,8.064 149.392,9.384 149.392,11.688 L149.392,18 L151.024,18 L151.024,11.616 C151.024,8.496 149.08,6.552 146.296,6.552 L146.296,6.552 Z M165.328,6.912 L163.696,6.912 L163.696,8.16 C162.688,7.2 161.344,6.624 159.688,6.624 C156.52,6.624 153.952,9.216 153.952,12.456 C153.952,15.72 156.52,18.312 159.688,18.312 C161.344,18.312 162.688,17.736 163.696,16.776 L163.696,18 L165.328,18 L165.328,6.912 Z M159.904,16.872 C157.456,16.872 155.608,14.856 155.608,12.456 C155.608,10.08 157.456,8.064 159.904,8.064 C161.416,8.064 162.76,8.736 163.696,10.08 L163.696,14.856 C162.76,16.2 161.416,16.872 159.904,16.872 L159.904,16.872 Z" id="North-Carolina" fill="#7F828A"></path>
                </g>
            </g>
        </g>
    </g>
</svg>